<svg width="200" height="200" viewBox="0 0 200 200" fill="none" xmlns="http://www.w3.org/2000/svg">
<rect width="200" height="200" rx="23" fill="#2F2F86"/>
<mask id="mask0_54_61" style="mask-type:luminance" maskUnits="userSpaceOnUse" x="45" y="44" width="118" height="113">
<path d="M45 44H162.054V156.154H45V44Z" fill="white"/>
</mask>
<g mask="url(#mask0_54_61)">
<path d="M99.6268 54.3613C90.4848 54.3615 81.5482 57.0726 73.947 62.1518C66.3458 67.231 60.4214 74.4501 56.923 82.8962C53.4247 91.3424 52.5095 100.636 54.2931 109.603C56.0767 118.569 60.4791 126.805 66.9436 133.269C73.408 139.734 81.6442 144.136 90.6105 145.919C99.5769 147.703 108.871 146.787 117.317 143.289C125.763 139.79 132.982 133.866 138.061 126.264C143.14 118.663 145.851 109.726 145.851 100.584C145.837 88.3294 140.962 76.5804 132.297 67.9149C123.631 59.2494 111.882 54.3751 99.6268 54.3613ZM99.6268 144.239C90.9927 144.239 82.5526 141.679 75.3737 136.882C68.1948 132.085 62.5995 125.267 59.2956 117.29C55.9916 109.313 55.1272 100.535 56.8117 92.067C58.4963 83.5989 62.6541 75.8204 68.7594 69.7152C74.8647 63.6101 82.6433 59.4524 91.1115 57.7681C99.5797 56.0837 108.357 56.9483 116.334 60.2525C124.311 63.5566 131.129 69.152 135.926 76.331C140.723 83.51 143.283 91.9502 143.283 100.584C143.271 112.159 138.668 123.256 130.483 131.44C122.299 139.625 111.201 144.228 99.6268 144.239Z" fill="white"/>
<path d="M99.6267 71.8691C93.9472 71.8691 88.3953 73.5533 83.673 76.7086C78.9507 79.8639 75.2701 84.3487 73.0966 89.5958C70.9232 94.8429 70.3544 100.617 71.4624 106.187C72.5703 111.757 75.3051 116.874 79.321 120.89C83.3369 124.906 88.4535 127.641 94.0238 128.749C99.5941 129.857 105.368 129.289 110.615 127.116C115.862 124.942 120.347 121.262 123.503 116.54C126.658 111.817 128.342 106.266 128.343 100.586C128.334 92.9728 125.306 85.6737 119.922 80.2902C114.539 74.9066 107.24 71.8781 99.6267 71.8691ZM117.715 81.0371L109.084 89.6691C108.89 89.5021 108.692 89.3401 108.489 89.1821L115.273 79.0301C116.126 79.6504 116.941 80.3202 117.716 81.0361M113.559 77.8761L106.774 88.0251C106.551 87.8981 106.324 87.7811 106.095 87.6641L110.767 76.3861C111.725 76.8273 112.656 77.3252 113.556 77.8771M108.867 75.5871L104.189 86.8731C103.946 86.7921 103.699 86.7221 103.451 86.6531L105.834 74.6721C106.862 74.9161 107.875 75.2217 108.867 75.5871ZM100.667 73.9611C101.721 73.9988 102.773 74.099 103.816 74.2611L101.426 86.2471C101.173 86.2161 100.918 86.1941 100.66 86.1751V73.9611M98.5937 73.9611V86.1771C98.3367 86.1951 98.0807 86.2181 97.8277 86.2491L95.4437 74.2661C96.4863 74.1018 97.5389 73.9999 98.5937 73.9611ZM93.4177 74.6731L95.8007 86.6541C95.5527 86.7231 95.3067 86.7931 95.0647 86.8731L90.3907 75.5871C91.3806 75.2217 92.3908 74.9164 93.4177 74.6731ZM88.4847 76.3851L93.1587 87.6691C92.9287 87.7851 92.7017 87.9021 92.4787 88.0301L85.6947 77.8771C86.5941 77.325 87.5258 76.8271 88.4847 76.3861M83.9847 79.0311L90.7667 89.1821C90.5667 89.3401 90.3667 89.5011 90.1727 89.6691L81.5407 81.0371C82.315 80.3212 83.1317 79.6514 83.9847 79.0311ZM80.0837 82.4981L88.7097 91.1251C88.5427 91.3181 88.3807 91.5161 88.2227 91.7191L78.0667 84.9401C78.6869 84.0872 79.3567 83.2715 80.0727 82.4971M76.9127 86.6541L87.0667 93.4381C86.9397 93.6611 86.8227 93.8881 86.7057 94.1181L75.4267 89.4431C75.8682 88.4849 76.3661 87.5536 76.9177 86.6541M74.6277 91.3541L85.9147 96.0251C85.8337 96.2671 85.7637 96.5141 85.6947 96.7611L73.7137 94.3781C73.9574 93.3514 74.2626 92.3403 74.6277 91.3501M73.3057 96.4041L85.2887 98.7871C85.2567 99.0401 85.2347 99.2951 85.2167 99.5531H73.0017C73.0398 98.4985 73.14 97.447 73.3017 96.4041M73.0017 101.619H85.2177C85.2357 101.876 85.2587 102.132 85.2897 102.385L73.3067 104.768C73.1428 103.725 73.041 102.674 73.0017 101.619ZM73.7137 106.794L85.6947 104.411C85.7637 104.659 85.8337 104.911 85.9147 105.147L74.6277 109.825C74.2626 108.835 73.9574 107.824 73.7137 106.797M75.4267 111.725L86.7107 107.05C86.8267 107.28 86.9437 107.507 87.0717 107.73L76.9177 114.517C76.366 113.617 75.8681 112.684 75.4267 111.725ZM78.0717 116.225L88.2237 109.442C88.3817 109.642 88.5427 109.842 88.7107 110.036L80.0787 118.668C79.3608 117.896 78.689 117.082 78.0667 116.231M81.5337 120.131L90.1667 111.502C90.3597 111.669 90.5577 111.831 90.7607 111.989L83.9807 122.14C83.1277 121.52 82.312 120.85 81.5377 120.134M85.6947 123.294L92.4787 113.141C92.7017 113.268 92.9287 113.385 93.1587 113.502L88.4847 124.785C87.5258 124.344 86.5941 123.846 85.6947 123.294ZM90.3947 125.584L95.0667 114.298C95.3087 114.378 95.5557 114.448 95.8027 114.517L93.4187 126.498C92.3919 126.254 91.3808 125.949 90.3907 125.584M98.5907 127.21C97.536 127.172 96.4845 127.072 95.4417 126.91L97.8267 114.925C98.0797 114.956 98.3347 114.978 98.5927 114.997V127.209M87.2307 100.586C87.2297 98.1334 87.9561 95.7355 89.318 93.6957C90.6799 91.6559 92.6162 90.0658 94.8819 89.1265C97.1476 88.1872 99.641 87.9409 102.047 88.4188C104.452 88.8967 106.662 90.0773 108.397 91.8112C110.132 93.5452 111.313 95.7547 111.792 98.1602C112.271 100.566 112.026 103.059 111.087 105.325C110.149 107.591 108.56 109.528 106.52 110.891C104.481 112.254 102.083 112.981 99.6307 112.981C96.3437 112.978 93.192 111.672 90.8672 109.348C88.5425 107.024 87.2346 103.873 87.2307 100.586ZM100.659 127.209V114.995C100.916 114.977 101.172 114.954 101.425 114.923L103.809 126.905C102.766 127.067 101.714 127.167 100.66 127.205M105.835 126.493L103.451 114.517C103.699 114.448 103.951 114.378 104.189 114.298L108.867 125.583C107.876 125.948 106.865 126.253 105.838 126.497M110.767 124.785L106.095 113.502C106.324 113.386 106.551 113.269 106.774 113.141L113.558 123.294C112.658 123.846 111.726 124.344 110.767 124.785ZM115.267 122.14L108.488 111.989C108.688 111.831 108.888 111.67 109.083 111.502L117.714 120.134C116.939 120.85 116.124 121.52 115.271 122.14M119.171 118.673L110.539 110.041C110.706 109.848 110.868 109.65 111.026 109.447L121.178 116.23C120.558 117.083 119.887 117.899 119.171 118.673ZM122.332 114.516L112.182 107.733C112.309 107.51 112.426 107.283 112.543 107.053L123.827 111.725C123.385 112.683 122.887 113.615 122.335 114.514M124.625 109.814L113.34 105.147C113.42 104.905 113.49 104.658 113.559 104.411L125.54 106.794C125.296 107.822 124.99 108.834 124.625 109.825M125.947 104.771L113.967 102.384C113.998 102.131 114.02 101.876 114.039 101.618H126.252C126.212 102.673 126.11 103.724 125.947 104.767M126.247 99.5521H114.036C114.018 99.2951 113.995 99.0391 113.964 98.7861L125.946 96.4031C126.108 97.4459 126.209 98.4974 126.247 99.5521ZM125.534 94.3771L113.558 96.7611C113.489 96.5131 113.42 96.2611 113.339 96.0251L124.625 91.3501C124.99 92.3401 125.295 93.3513 125.539 94.3781M123.827 89.4431L112.543 94.1181C112.427 93.8881 112.31 93.6611 112.182 93.4381L122.335 86.6551C122.887 87.5546 123.385 88.4849 123.827 89.4431ZM111.027 91.7241C110.869 91.5241 110.708 91.3241 110.54 91.1301L119.172 82.4981C119.888 83.2725 120.557 84.0882 121.178 84.9411L111.027 91.7241Z" fill="white"/>
</g>
</svg>
